<?xml version="1.0" encoding="UTF-8"?>
<svg version="1.1" viewBox="0 0 800 800" width="1280" height="1280" xmlns="http://www.w3.org/2000/svg">
<path transform="translate(337,132)" d="m0 0h104l21 1 3 5 16 35 16 36 13 29 20 45 18 40 43 96 20 45 18 40 16 36 18 40 13 29 16 36 8 17 35 7 18 6 6 4 1 5-8 5-21 6-20 4-39 5-43 4-64 4-82 3-83 1-86-1-83-3-50-3-47-4-32-4-25-4-21-5-13-5-3-3 1-5 5-4 15-5 23-5 15-3 11-24 11-25 9-20 12-27 11-25 9-21 7-15 26-58 18-41 15-33 16-36 13-29 24-54 17-38 16-36 17-38 5-9zm62 74-4 8-10 29-12 31-12 26-11 20-12 19-10 14-11 14-11 13-13 13-7 8-11 11-8 7-8 8-8 7-10 9-7 7-7 10-5 9-5 12-3 12-1 23 4 18 7 17 12 18 9 9 13 9 17 8 11 3 3 1h30l30-10 14-5 4-1v25l-1 9-6 8-8 7-11 4-14 3-1 2v7l5 1 141-1 1-1v-6l-2-2-18-3-10-6-8-9-3-7-2-34 14 6 16 8 13 4 1 1h36l18-6 15-8 13-11 7-7 10-14 5-10 5-14 2-12v-19l-4-18-6-13-7-12-9-10-4-5-11-9-12-12-8-7-9-9h-2l-2-4-10-10-1-2h-2l-2-4-8-8-8-10-14-19-12-18-9-15-12-22-10-22-9-23-7-22-4-15-2-3z" fill="#F99321"/>
<path transform="translate(330,648)" d="m0 0h143v27h229l-1-9v-3l14 2 24 5 16 6 5 5-1 4-10 5-18 5-20 4-39 5-43 4-64 4-82 3-83 1-86-1-83-3-50-3-47-4-32-4-25-4-21-5-13-5-3-3 1-5 5-4 15-5 23-5 13-1v11h229v-26z" fill="#010001"/>
</svg>
