<svg width="30" height="28" viewBox="0 0 30 28" fill="none" xmlns="http://www.w3.org/2000/svg">
<path fill-rule="evenodd" clip-rule="evenodd" d="M20.7 13.9874C20.7 16.8874 18.2 19.1875 15.2 19.0875C12.1 19.0875 9.70005 16.6872 9.80005 13.7872C9.80005 10.8872 12.3 8.58754 15.4 8.58754C18.4 8.68754 20.8 11.0874 20.7 13.9874ZM29.7 8.38734L29.4 19.8873C29.4 24.2873 25.6 27.7871 21 27.6871L9 27.4874C4.4 27.3874 0.800049 23.7873 0.800049 19.3873L1.09998 7.88734C1.19998 3.48734 4.9 -0.01246 9.5 0.08754L21.5 0.287247C26.1 0.387247 29.7 3.98734 29.7 8.38734ZM23 13.9874C23 9.88744 19.6 6.58744 15.4 6.48744C11.1 6.38744 7.6 9.68725 7.5 13.7872C7.5 17.7872 10.9 21.1872 15.1 21.2872C19.4 21.2872 22.9 18.0874 23 13.9874ZM25.6 5.78725C25.6 4.78725 24.8 3.98744 23.7 3.98744C22.7 3.88744 21.8 4.78725 21.8 5.78725C21.7 6.78725 22.6 7.58715 23.7 7.68715C24.7 7.68715 25.6 6.88725 25.6 5.78725Z" fill="white"/>
</svg>
