<svg width="32" height="33" viewBox="0 0 32 33" fill="none" xmlns="http://www.w3.org/2000/svg">
<path d="M16 32C7.43959 32 0.5 25.0604 0.5 16.5C0.5 7.93959 7.43959 1 16 1C24.5604 1 31.5 7.93959 31.5 16.5C31.5 25.0604 24.5604 32 16 32Z" stroke="#EE7D05"/>
<path d="M24 8H8C6.9 8 6.01 8.9 6.01 10L6 22C6 23.1 6.9 24 8 24H24C25.1 24 26 23.1 26 22V10C26 8.9 25.1 8 24 8ZM24 12L16 17L8 12V10L16 15L24 10V12Z" fill="black"/>
<path d="M24 8H8C6.9 8 6.01 8.9 6.01 10L6 22C6 23.1 6.9 24 8 24H24C25.1 24 26 23.1 26 22V10C26 8.9 25.1 8 24 8ZM24 12L16 17L8 12V10L16 15L24 10V12Z" fill="#EE7D05"/>
</svg>
