<svg width="33" height="23" viewBox="0 0 33 23" fill="none" xmlns="http://www.w3.org/2000/svg">
<path fill-rule="evenodd" clip-rule="evenodd" d="M31.7999 4.18701C31.4999 2.78701 30.3999 1.78721 28.9999 1.38721C26.5999 0.787207 16.6998 0.787109 16.6998 0.787109C16.6998 0.787109 6.79993 0.887402 4.29993 1.5874C2.99993 1.9874 1.89988 3.08721 1.49988 4.38721C0.899878 6.88721 0.899902 11.9873 0.899902 11.9873C0.899902 11.9873 0.999853 17.1874 1.59985 19.5874C1.99985 20.9874 3.0999 21.9872 4.3999 22.3872C6.8999 22.9872 16.7999 22.9873 16.7999 22.9873C16.7999 22.9873 26.6998 22.887 29.1998 22.187C30.4998 21.787 31.5999 20.7872 31.8999 19.3872C32.5999 16.8872 32.4999 11.7871 32.4999 11.7871C32.4999 11.7871 32.4999 6.58701 31.7999 4.18701ZM13.5999 16.687L13.4999 7.18701L21.7999 11.8872L13.5999 16.687Z" fill="white"/>
</svg>
