<svg xmlns="http://www.w3.org/2000/svg" fill="none" viewBox="0 0 243 51" height="51" width="243">
<g clip-path="url(#clip0_5120_352)">
<path fill="#17CC14" d="M58.8566 25.4371C58.8566 15.7176 65.8695 9.01496 75.1446 9.01496C80.7371 9.01496 86.9065 11.2336 90.1011 19.5343L83.2223 21.176C81.2251 15.9826 77.8964 14.5623 75.1446 14.5623C69.9512 14.5623 65.9567 19.0447 65.9567 25.4355C65.9567 31.8262 70.3067 36.3087 74.9216 36.3087C78.1178 36.3087 82.0234 34.3115 83.5326 28.4523L90.4566 29.8726C88.0603 38.7939 80.9585 41.856 74.9232 41.856C66.5352 41.856 58.8566 35.5977 58.8566 25.4338V25.4371ZM105.875 25.9251C105.875 24.2833 104.188 23.6176 102.369 23.6176C99.8384 23.6176 98.1966 24.7277 98.153 27.3907L92.2066 26.0139C92.6057 23.3962 93.9372 21.7529 95.8455 20.688C97.7539 19.6232 100.107 19.1788 102.369 19.1788C107.339 19.1788 111.734 21.3538 111.734 26.9463V34.9788C111.734 39.4612 112.045 40.8816 112.045 41.103H105.875C105.875 40.8363 105.52 38.7955 105.52 38.7066C104.587 40.1706 102.724 41.6362 99.129 41.6362C94.3799 41.6362 91.4504 38.44 91.4504 35.1113C91.4504 29.9179 95.3559 28.7642 100.194 28.0548C100.283 28.0548 103.256 27.6104 103.434 27.6104C105.52 27.3002 105.875 26.7669 105.875 25.9235V25.9251ZM105.52 31.251L105.21 31.2946L104.587 31.3835L103.922 31.4724L101.881 31.8279C99.7511 32.1833 97.665 32.6261 97.665 34.6233C97.665 35.9112 98.9529 37.1974 100.595 37.1974C102.236 37.1974 105.521 36.4428 105.521 32.8475V31.2494L105.52 31.251ZM121.714 9.76957H115.501V41.1046H121.714V9.76957ZM124.438 30.4527C124.438 24.9943 128.389 19.1788 135.623 19.1788C142.858 19.1788 146.763 24.9927 146.763 30.4527C146.763 35.9128 142.813 41.6378 135.623 41.6378C128.434 41.6378 124.438 35.9128 124.438 30.4527ZM130.651 30.4527C130.651 33.426 132.25 36.9776 135.622 36.9776C138.994 36.9776 140.549 33.4276 140.549 30.4527C140.549 27.4779 138.996 23.839 135.622 23.839C132.248 23.839 130.651 27.4343 130.651 30.4527ZM159.33 41.6378C166.209 41.6378 169.449 36.5333 169.938 33.2935L163.725 32.0945C163.37 33.9139 162.704 36.976 159.332 36.976C155.959 36.976 154.494 33.4696 154.494 30.4075C154.494 27.3454 155.825 23.839 159.332 23.839C162.35 23.839 163.282 26.5019 163.636 28.2778L169.849 26.9899C169.14 23.839 165.811 19.1788 159.33 19.1788C152.228 19.1788 148.279 24.7261 148.279 30.4075C148.279 36.0889 152.228 41.6362 159.33 41.6362V41.6378ZM179.78 41.6378C184.042 41.6378 185.861 39.4192 186.216 38.5305V41.1046H192.253V19.712H186.04V31.6517C186.04 33.9592 185.375 35.2907 184.353 36.0453C183.421 36.7999 182.313 36.9776 181.647 36.9776C180.183 36.9776 179.428 36.2683 178.939 35.5137C178.451 34.6702 178.362 33.8267 178.362 33.3387V19.7137H172.149V33.3839C172.149 34.6265 172.415 36.6674 173.48 38.4432C174.545 40.1738 176.542 41.6394 179.782 41.6394L179.78 41.6378ZM202.388 29.9648C202.388 28.9435 202.477 27.6573 203.32 26.5472C204.075 25.4823 205.407 24.5936 207.714 24.5936C208.646 24.5936 209.002 24.55 209.49 24.6825V19.224C209.002 19.1804 208.514 19.1804 207.981 19.1804C205.318 19.1804 203.277 20.423 202.21 22.3314V19.712H196.175V41.1046H202.388V29.9648ZM216.979 41.1046H211.122V9.76957H217.335V21.664C218.755 20.2 220.707 19.1788 223.37 19.1788C232.335 19.1788 233.489 27.4779 233.489 30.4527C233.489 33.4276 232.335 41.6378 223.325 41.6378C221.195 41.6378 218.177 40.4841 216.978 38.7082V41.1046H216.979ZM217.29 30.4527C217.29 35.5573 220.397 36.9776 222.171 36.9776C225.5 36.9776 227.276 34.1369 227.276 30.4527C227.276 26.7686 225.5 23.839 222.171 23.839C220.395 23.839 217.29 25.303 217.29 30.4527ZM243 0V50.8774H0.618896V0H243ZM16.5902 20.2501C18.652 22.766 21.866 23.6047 26.0253 23.6047C30.1845 23.6047 33.3969 22.766 35.4604 20.2501C37.8018 17.3852 38.2203 12.843 32.3142 10.2915C28.2568 12.8236 26.3113 15.9874 26.056 20.1209H25.9946C25.7393 15.9858 23.7921 12.822 19.7347 10.2915C13.8287 12.843 14.2488 17.3852 16.5902 20.2501ZM10.7472 35.3989C12.7929 37.7193 16.9828 40.5245 26.0237 40.5245C35.0645 40.5245 39.2577 37.7193 41.3001 35.3989C43.0663 33.3904 45.5628 29.1277 42.8611 22.7192C34.8916 23.6903 28.832 28.8514 26.0237 37.0601C23.2185 28.8514 17.1557 23.6903 9.18949 22.7192C6.48775 29.1277 8.98104 33.3904 10.7472 35.3989ZM241.079 1.92127H51.4995V48.9529H241.079V1.92127Z"></path>
</g>
<defs>
<clipPath id="clip0_5120_352">
<rect transform="translate(0.618896)" fill="white" height="50.9" width="242.381"></rect>
</clipPath>
</defs>
</svg>
