<svg width="28" height="29" viewBox="0 0 28 29" fill="none" xmlns="http://www.w3.org/2000/svg">
<path d="M14 28C6.54416 28 0.5 21.9558 0.5 14.5C0.5 7.04416 6.54416 1 14 1C21.4558 1 27.5 7.04416 27.5 14.5C27.5 21.9558 21.4558 28 14 28Z" stroke="#EE7D05"/>
<path d="M19.75 9.0625H7.75C6.925 9.0625 6.2575 9.7375 6.2575 10.5625L6.25 19.5625C6.25 20.3875 6.925 21.0625 7.75 21.0625H19.75C20.575 21.0625 21.25 20.3875 21.25 19.5625V10.5625C21.25 9.7375 20.575 9.0625 19.75 9.0625ZM19.75 12.0625L13.75 15.8125L7.75 12.0625V10.5625L13.75 14.3125L19.75 10.5625V12.0625Z" fill="black"/>
<path d="M19.75 9.0625H7.75C6.925 9.0625 6.2575 9.7375 6.2575 10.5625L6.25 19.5625C6.25 20.3875 6.925 21.0625 7.75 21.0625H19.75C20.575 21.0625 21.25 20.3875 21.25 19.5625V10.5625C21.25 9.7375 20.575 9.0625 19.75 9.0625ZM19.75 12.0625L13.75 15.8125L7.75 12.0625V10.5625L13.75 14.3125L19.75 10.5625V12.0625Z" fill="#EE7D05"/>
</svg>
